<?xml version="1.0" encoding="UTF-8"?>
<!DOCTYPE svg PUBLIC "-//W3C//DTD SVG 1.1//EN" "http://www.w3.org/Graphics/SVG/1.1/DTD/svg11.dtd">
<svg xmlns="http://www.w3.org/2000/svg" version="1.1" width="2308px" height="2217px" style="shape-rendering:geometricPrecision; text-rendering:geometricPrecision; image-rendering:optimizeQuality; fill-rule:evenodd; clip-rule:evenodd" xmlns:xlink="http://www.w3.org/1999/xlink">
<g><path style="opacity:0.155" fill="#fefffe" d="M 191.5,-0.5 C 570.833,-0.5 950.167,-0.5 1329.5,-0.5C 1329.5,0.833333 1329.5,2.16667 1329.5,3.5C 1330.83,3.5 1332.17,3.5 1333.5,3.5C 1333.5,6.5 1333.5,9.5 1333.5,12.5C 1334.83,12.5 1336.17,12.5 1337.5,12.5C 1337.5,13.8333 1337.5,15.1667 1337.5,16.5C 1339.17,16.5 1340.83,16.5 1342.5,16.5C 1342.5,19.5 1342.5,22.5 1342.5,25.5C 1343.83,25.5 1345.17,25.5 1346.5,25.5C 1346.5,26.8333 1346.5,28.1667 1346.5,29.5C 1347.83,29.5 1349.17,29.5 1350.5,29.5C 1350.5,32.5 1350.5,35.5 1350.5,38.5C 1352.17,38.5 1353.83,38.5 1355.5,38.5C 1355.5,39.8333 1355.5,41.1667 1355.5,42.5C 1356.83,42.5 1358.17,42.5 1359.5,42.5C 1359.5,45.5 1359.5,48.5 1359.5,51.5C 1360.83,51.5 1362.17,51.5 1363.5,51.5C 1363.5,54.1667 1363.5,56.8333 1363.5,59.5C 1365.17,59.5 1366.83,59.5 1368.5,59.5C 1368.5,61.1667 1368.5,62.8333 1368.5,64.5C 1369.83,64.5 1371.17,64.5 1372.5,64.5C 1372.5,67.1667 1372.5,69.8333 1372.5,72.5C 1373.83,72.5 1375.17,72.5 1376.5,72.5C 1376.5,74.1667 1376.5,75.8333 1376.5,77.5C 1378.17,77.5 1379.83,77.5 1381.5,77.5C 1381.5,80.1667 1381.5,82.8333 1381.5,85.5C 1382.83,85.5 1384.17,85.5 1385.5,85.5C 1385.5,88.5 1385.5,91.5 1385.5,94.5C 1386.83,94.5 1388.17,94.5 1389.5,94.5C 1389.5,95.8333 1389.5,97.1667 1389.5,98.5C 1391.17,98.5 1392.83,98.5 1394.5,98.5C 1394.5,101.5 1394.5,104.5 1394.5,107.5C 1395.83,107.5 1397.17,107.5 1398.5,107.5C 1398.5,108.833 1398.5,110.167 1398.5,111.5C 1399.83,111.5 1401.17,111.5 1402.5,111.5C 1402.5,114.5 1402.5,117.5 1402.5,120.5C 1404.17,120.5 1405.83,120.5 1407.5,120.5C 1407.5,121.833 1407.5,123.167 1407.5,124.5C 1408.83,124.5 1410.17,124.5 1411.5,124.5C 1411.5,127.5 1411.5,130.5 1411.5,133.5C 1412.83,133.5 1414.17,133.5 1415.5,133.5C 1415.5,136.5 1415.5,139.5 1415.5,142.5C 1417.17,142.5 1418.83,142.5 1420.5,142.5C 1420.5,143.833 1420.5,145.167 1420.5,146.5C 1421.83,146.5 1423.17,146.5 1424.5,146.5C 1424.5,149.5 1424.5,152.5 1424.5,155.5C 1425.83,155.5 1427.17,155.5 1428.5,155.5C 1428.5,158.167 1428.5,160.833 1428.5,163.5C 1430.17,163.5 1431.83,163.5 1433.5,163.5C 1433.5,165.167 1433.5,166.833 1433.5,168.5C 1434.83,168.5 1436.17,168.5 1437.5,168.5C 1437.5,171.167 1437.5,173.833 1437.5,176.5C 1438.83,176.5 1440.17,176.5 1441.5,176.5C 1441.5,179.5 1441.5,182.5 1441.5,185.5C 1443.17,185.5 1444.83,185.5 1446.5,185.5C 1446.5,186.833 1446.5,188.167 1446.5,189.5C 1447.83,189.5 1449.17,189.5 1450.5,189.5C 1450.5,192.5 1450.5,195.5 1450.5,198.5C 1451.83,198.5 1453.17,198.5 1454.5,198.5C 1454.5,199.833 1454.5,201.167 1454.5,202.5C 1455.83,202.5 1457.17,202.5 1458.5,202.5C 1458.5,205.5 1458.5,208.5 1458.5,211.5C 1460.17,211.5 1461.83,211.5 1463.5,211.5C 1463.5,214.167 1463.5,216.833 1463.5,219.5C 1464.83,219.5 1466.17,219.5 1467.5,219.5C 1467.5,221.167 1467.5,222.833 1467.5,224.5C 1468.83,224.5 1470.17,224.5 1471.5,224.5C 1471.5,227.167 1471.5,229.833 1471.5,232.5C 1473.17,232.5 1474.83,232.5 1476.5,232.5C 1476.5,235.5 1476.5,238.5 1476.5,241.5C 1477.83,241.5 1479.17,241.5 1480.5,241.5C 1480.5,242.833 1480.5,244.167 1480.5,245.5C 1481.83,245.5 1483.17,245.5 1484.5,245.5C 1484.5,248.5 1484.5,251.5 1484.5,254.5C 1486.17,254.5 1487.83,254.5 1489.5,254.5C 1489.5,257.5 1489.5,260.5 1489.5,263.5C 1490.83,263.5 1492.17,263.5 1493.5,263.5C 1493.5,264.833 1493.5,266.167 1493.5,267.5C 1494.83,267.5 1496.17,267.5 1497.5,267.5C 1497.5,270.5 1497.5,273.5 1497.5,276.5C 1499.17,276.5 1500.83,276.5 1502.5,276.5C 1502.5,279.167 1502.5,281.833 1502.5,284.5C 1503.83,284.5 1505.17,284.5 1506.5,284.5C 1506.5,287.5 1506.5,290.5 1506.5,293.5C 1507.83,293.5 1509.17,293.5 1510.5,293.5C 1510.5,294.833 1510.5,296.167 1510.5,297.5C 1512.17,297.5 1513.83,297.5 1515.5,297.5C 1515.5,300.5 1515.5,303.5 1515.5,306.5C 1516.83,306.5 1518.17,306.5 1519.5,306.5C 1519.5,309.167 1519.5,311.833 1519.5,314.5C 1520.83,314.5 1522.17,314.5 1523.5,314.5C 1523.5,316.167 1523.5,317.833 1523.5,319.5C 1525.17,319.5 1526.83,319.5 1528.5,319.5C 1528.5,322.167 1528.5,324.833 1528.5,327.5C 1529.83,327.5 1531.17,327.5 1532.5,327.5C 1532.5,330.5 1532.5,333.5 1532.5,336.5C 1533.83,336.5 1535.17,336.5 1536.5,336.5C 1536.5,339.5 1536.5,342.5 1536.5,345.5C 1538.17,345.5 1539.83,345.5 1541.5,345.5C 1541.5,348.167 1541.5,350.833 1541.5,353.5C 1542.83,353.5 1544.17,353.5 1545.5,353.5C 1545.5,355.167 1545.5,356.833 1545.5,358.5C 1546.83,358.5 1548.17,358.5 1549.5,358.5C 1549.5,361.167 1549.5,363.833 1549.5,366.5C 1551.17,366.5 1552.83,366.5 1554.5,366.5C 1554.5,369.5 1554.5,372.5 1554.5,375.5C 1555.83,375.5 1557.17,375.5 1558.5,375.5C 1558.5,378.5 1558.5,381.5 1558.5,384.5C 1559.83,384.5 1561.17,384.5 1562.5,384.5C 1562.5,387.167 1562.5,389.833 1562.5,392.5C 1564.17,392.5 1565.83,392.5 1567.5,392.5C 1567.5,394.167 1567.5,395.833 1567.5,397.5C 1568.83,397.5 1570.17,397.5 1571.5,397.5C 1571.5,400.167 1571.5,402.833 1571.5,405.5C 1572.83,405.5 1574.17,405.5 1575.5,405.5C 1575.5,408.5 1575.5,411.5 1575.5,414.5C 1577.17,414.5 1578.83,414.5 1580.5,414.5C 1580.5,417.5 1580.5,420.5 1580.5,423.5C 1581.83,423.5 1583.17,423.5 1584.5,423.5C 1584.5,424.833 1584.5,426.167 1584.5,427.5C 1585.83,427.5 1587.17,427.5 1588.5,427.5C 1588.5,430.167 1588.5,432.833 1588.5,435.5C 1590.17,435.5 1591.83,435.5 1593.5,435.5C 1593.5,438.5 1593.5,441.5 1593.5,444.5C 1594.83,444.5 1596.17,444.5 1597.5,444.5C 1597.5,447.5 1597.5,450.5 1597.5,453.5C 1598.83,453.5 1600.17,453.5 1601.5,453.5C 1601.5,454.833 1601.5,456.167 1601.5,457.5C 1603.17,457.5 1604.83,457.5 1606.5,457.5C 1606.5,460.5 1606.5,463.5 1606.5,466.5C 1607.83,466.5 1609.17,466.5 1610.5,466.5C 1610.5,469.167 1610.5,471.833 1610.5,474.5C 1611.83,474.5 1613.17,474.5 1614.5,474.5C 1614.5,477.5 1614.5,480.5 1614.5,483.5C 1616.17,483.5 1617.83,483.5 1619.5,483.5C 1619.5,486.5 1619.5,489.5 1619.5,492.5C 1620.83,492.5 1622.17,492.5 1623.5,492.5C 1623.5,493.833 1623.5,495.167 1623.5,496.5C 1624.83,496.5 1626.17,496.5 1627.5,496.5C 1627.5,499.5 1627.5,502.5 1627.5,505.5C 1629.17,505.5 1630.83,505.5 1632.5,505.5C 1632.5,508.167 1632.5,510.833 1632.5,513.5C 1633.83,513.5 1635.17,513.5 1636.5,513.5C 1636.5,516.5 1636.5,519.5 1636.5,522.5C 1637.83,522.5 1639.17,522.5 1640.5,522.5C 1640.5,525.5 1640.5,528.5 1640.5,531.5C 1642.17,531.5 1643.83,531.5 1645.5,531.5C 1645.5,534.167 1645.5,536.833 1645.5,539.5C 1646.83,539.5 1648.17,539.5 1649.5,539.5C 1649.5,542.5 1649.5,545.5 1649.5,548.5C 1650.83,548.5 1652.17,548.5 1653.5,548.5C 1653.5,549.833 1653.5,551.167 1653.5,552.5C 1654.83,552.5 1656.17,552.5 1657.5,552.5C 1657.5,555.5 1657.5,558.5 1657.5,561.5C 1659.17,561.5 1660.83,561.5 1662.5,561.5C 1662.5,564.167 1662.5,566.833 1662.5,569.5C 1663.83,569.5 1665.17,569.5 1666.5,569.5C 1666.5,572.5 1666.5,575.5 1666.5,578.5C 1667.83,578.5 1669.17,578.5 1670.5,578.5C 1670.5,581.5 1670.5,584.5 1670.5,587.5C 1672.17,587.5 1673.83,587.5 1675.5,587.5C 1675.5,590.167 1675.5,592.833 1675.5,595.5C 1676.83,595.5 1678.17,595.5 1679.5,595.5C 1679.5,598.5 1679.5,601.5 1679.5,604.5C 1680.83,604.5 1682.17,604.5 1683.5,604.5C 1683.5,607.5 1683.5,610.5 1683.5,613.5C 1685.17,613.5 1686.83,613.5 1688.5,613.5C 1688.5,616.167 1688.5,618.833 1688.5,621.5C 1689.83,621.5 1691.17,621.5 1692.5,621.5C 1692.5,624.5 1692.5,627.5 1692.5,630.5C 1693.83,630.5 1695.17,630.5 1696.5,630.5C 1696.5,633.5 1696.5,636.5 1696.5,639.5C 1698.17,639.5 1699.83,639.5 1701.5,639.5C 1701.5,642.167 1701.5,644.833 1701.5,647.5C 1702.83,647.5 1704.17,647.5 1705.5,647.5C 1705.5,650.5 1705.5,653.5 1705.5,656.5C 1706.83,656.5 1708.17,656.5 1709.5,656.5C 1709.5,659.5 1709.5,662.5 1709.5,665.5C 1711.17,665.5 1712.83,665.5 1714.5,665.5C 1714.5,668.167 1714.5,670.833 1714.5,673.5C 1715.83,673.5 1717.17,673.5 1718.5,673.5C 1718.5,676.5 1718.5,679.5 1718.5,682.5C 1719.83,682.5 1721.17,682.5 1722.5,682.5C 1722.5,685.167 1722.5,687.833 1722.5,690.5C 1724.17,690.5 1725.83,690.5 1727.5,690.5C 1727.5,693.5 1727.5,696.5 1727.5,699.5C 1728.83,699.5 1730.17,699.5 1731.5,699.5C 1731.5,702.5 1731.5,705.5 1731.5,708.5C 1732.83,708.5 1734.17,708.5 1735.5,708.5C 1735.5,711.167 1735.5,713.833 1735.5,716.5C 1737.17,716.5 1738.83,716.5 1740.5,716.5C 1740.5,719.5 1740.5,722.5 1740.5,725.5C 1741.83,725.5 1743.17,725.5 1744.5,725.5C 1744.5,728.5 1744.5,731.5 1744.5,734.5C 1745.83,734.5 1747.17,734.5 1748.5,734.5C 1748.5,737.167 1748.5,739.833 1748.5,742.5C 1750.17,742.5 1751.83,742.5 1753.5,742.5C 1753.5,745.5 1753.5,748.5 1753.5,751.5C 1754.83,751.5 1756.17,751.5 1757.5,751.5C 1757.5,754.5 1757.5,757.5 1757.5,760.5C 1758.83,760.5 1760.17,760.5 1761.5,760.5C 1761.5,763.167 1761.5,765.833 1761.5,768.5C 1763.17,768.5 1764.83,768.5 1766.5,768.5C 1766.5,771.5 1766.5,774.5 1766.5,777.5C 1767.83,777.5 1769.17,777.5 1770.5,777.5C 1770.5,780.5 1770.5,783.5 1770.5,786.5C 1771.83,786.5 1773.17,786.5 1774.5,786.5C 1774.5,790.5 1774.5,794.5 1774.5,798.5C 1776.17,798.5 1777.83,798.5 1779.5,798.5C 1779.5,801.5 1779.5,804.5 1779.5,807.5C 1780.83,807.5 1782.17,807.5 1783.5,807.5C 1783.5,810.5 1783.5,813.5 1783.5,816.5C 1784.83,816.5 1786.17,816.5 1787.5,816.5C 1787.5,819.167 1787.5,821.833 1787.5,824.5C 1789.17,824.5 1790.83,824.5 1792.5,824.5C 1792.5,827.5 1792.5,830.5 1792.5,833.5C 1793.83,833.5 1795.17,833.5 1796.5,833.5C 1796.5,836.5 1796.5,839.5 1796.5,842.5C 1797.83,842.5 1799.17,842.5 1800.5,842.5C 1800.5,846.833 1800.5,851.167 1800.5,855.5C 1802.17,855.5 1803.83,855.5 1805.5,855.5C 1805.5,858.167 1805.5,860.833 1805.5,863.5C 1806.83,863.5 1808.17,863.5 1809.5,863.5C 1809.5,866.5 1809.5,869.5 1809.5,872.5C 1810.83,872.5 1812.17,872.5 1813.5,872.5C 1813.5,875.5 1813.5,878.5 1813.5,881.5C 1815.17,881.5 1816.83,881.5 1818.5,881.5C 1818.5,885.833 1818.5,890.167 1818.5,894.5C 1819.83,894.5 1821.17,894.5 1822.5,894.5C 1822.5,897.167 1822.5,899.833 1822.5,902.5C 1823.83,902.5 1825.17,902.5 1826.5,902.5C 1826.5,905.5 1826.5,908.5 1826.5,911.5C 1828.17,911.5 1829.83,911.5 1831.5,911.5C 1831.5,914.167 1831.5,916.833 1831.5,919.5C 1832.83,919.5 1834.17,919.5 1835.5,919.5C 1835.5,922.5 1835.5,925.5 1835.5,928.5C 1836.83,928.5 1838.17,928.5 1839.5,928.5C 1839.5,932.833 1839.5,937.167 1839.5,941.5C 1840.83,941.5 1842.17,941.5 1843.5,941.5C 1843.5,944.5 1843.5,947.5 1843.5,950.5C 1845.17,950.5 1846.83,950.5 1848.5,950.5C 1848.5,953.167 1848.5,955.833 1848.5,958.5C 1849.83,958.5 1851.17,958.5 1852.5,958.5C 1852.5,961.5 1852.5,964.5 1852.5,967.5C 1853.83,967.5 1855.17,967.5 1856.5,967.5C 1856.5,971.833 1856.5,976.167 1856.5,980.5C 1858.17,980.5 1859.83,980.5 1861.5,980.5C 1861.5,983.5 1861.5,986.5 1861.5,989.5C 1862.83,989.5 1864.17,989.5 1865.5,989.5C 1865.5,992.167 1865.5,994.833 1865.5,997.5C 1866.83,997.5 1868.17,997.5 1869.5,997.5C 1869.5,1001.83 1869.5,1006.17 1869.5,1010.5C 1871.17,1010.5 1872.83,1010.5 1874.5,1010.5C 1874.5,1013.5 1874.5,1016.5 1874.5,1019.5C 1875.83,1019.5 1877.17,1019.5 1878.5,1019.5C 1878.5,1022.5 1878.5,1025.5 1878.5,1028.5C 1879.83,1028.5 1881.17,1028.5 1882.5,1028.5C 1882.5,1032.5 1882.5,1036.5 1882.5,1040.5C 1884.17,1040.5 1885.83,1040.5 1887.5,1040.5C 1887.5,1043.5 1887.5,1046.5 1887.5,1049.5C 1888.83,1049.5 1890.17,1049.5 1891.5,1049.5C 1891.5,1052.5 1891.5,1055.5 1891.5,1058.5C 1892.83,1058.5 1894.17,1058.5 1895.5,1058.5C 1895.5,1062.83 1895.5,1067.17 1895.5,1071.5C 1897.17,1071.5 1898.83,1071.5 1900.5,1071.5C 1900.5,1074.17 1900.5,1076.83 1900.5,1079.5C 1901.83,1079.5 1903.17,1079.5 1904.5,1079.5C 1904.5,1083.83 1904.5,1088.17 1904.5,1092.5C 1905.83,1092.5 1907.17,1092.5 1908.5,1092.5C 1908.5,1096.83 1908.5,1101.17 1908.5,1105.5C 1910.17,1105.5 1911.83,1105.5 1913.5,1105.5C 1913.5,1108.5 1913.5,1111.5 1913.5,1114.5C 1914.83,1114.5 1916.17,1114.5 1917.5,1114.5C 1917.5,1118.83 1917.5,1123.17 1917.5,1127.5C 1918.83,1127.5 1920.17,1127.5 1921.5,1127.5C 1921.5,1130.5 1921.5,1133.5 1921.5,1136.5C 1923.17,1136.5 1924.83,1136.5 1926.5,1136.5C 1926.5,1139.17 1926.5,1141.83 1926.5,1144.5C 1927.83,1144.5 1929.17,1144.5 1930.5,1144.5C 1930.5,1148.83 1930.5,1153.17 1930.5,1157.5C 1931.83,1157.5 1933.17,1157.5 1934.5,1157.5C 1934.5,1161.83 1934.5,1166.17 1934.5,1170.5C 1936.17,1170.5 1937.83,1170.5 1939.5,1170.5C 1939.5,1174.83 1939.5,1179.17 1939.5,1183.5C 1940.83,1183.5 1942.17,1183.5 1943.5,1183.5C 1943.5,1186.5 1943.5,1189.5 1943.5,1192.5C 1944.83,1192.5 1946.17,1192.5 1947.5,1192.5C 1947.5,1196.83 1947.5,1201.17 1947.5,1205.5C 1949.17,1205.5 1950.83,1205.5 1952.5,1205.5C 1952.5,1208.17 1952.5,1210.83 1952.5,1213.5C 1953.83,1213.5 1955.17,1213.5 1956.5,1213.5C 1956.5,1217.83 1956.5,1222.17 1956.5,1226.5C 1957.83,1226.5 1959.17,1226.5 1960.5,1226.5C 1960.5,1230.83 1960.5,1235.17 1960.5,1239.5C 1962.17,1239.5 1963.83,1239.5 1965.5,1239.5C 1965.5,1243.83 1965.5,1248.17 1965.5,1252.5C 1966.83,1252.5 1968.17,1252.5 1969.5,1252.5C 1969.5,1256.83 1969.5,1261.17 1969.5,1265.5C 1970.83,1265.5 1972.17,1265.5 1973.5,1265.5C 1973.5,1269.83 1973.5,1274.17 1973.5,1278.5C 1975.17,1278.5 1976.83,1278.5 1978.5,1278.5C 1978.5,1281.5 1978.5,1284.5 1978.5,1287.5C 1979.83,1287.5 1981.17,1287.5 1982.5,1287.5C 1982.5,1291.83 1982.5,1296.17 1982.5,1300.5C 1983.83,1300.5 1985.17,1300.5 1986.5,1300.5C 1986.5,1304.83 1986.5,1309.17 1986.5,1313.5C 1988.17,1313.5 1989.83,1313.5 1991.5,1313.5C 1991.5,1317.83 1991.5,1322.17 1991.5,1326.5C 1992.83,1326.5 1994.17,1326.5 1995.5,1326.5C 1995.5,1332.17 1995.5,1337.83 1995.5,1343.5C 1996.83,1343.5 1998.17,1343.5 1999.5,1343.5C 1999.5,1347.83 1999.5,1352.17 1999.5,1356.5C 2001.17,1356.5 2002.83,1356.5 2004.5,1356.5C 2004.5,1359.5 2004.5,1362.5 2004.5,1365.5C 2005.83,1365.5 2007.17,1365.5 2008.5,1365.5C 2008.5,1369.83 2008.5,1374.17 2008.5,1378.5C 2009.83,1378.5 2011.17,1378.5 2012.5,1378.5C 2012.5,1382.83 2012.5,1387.17 2012.5,1391.5C 2014.17,1391.5 2015.83,1391.5 2017.5,1391.5C 2017.5,1395.83 2017.5,1400.17 2017.5,1404.5C 2018.83,1404.5 2020.17,1404.5 2021.5,1404.5C 2021.5,1408.5 2021.5,1412.5 2021.5,1416.5C 2022.83,1416.5 2024.17,1416.5 2025.5,1416.5C 2025.5,1420.83 2025.5,1425.17 2025.5,1429.5C 2027.17,1429.5 2028.83,1429.5 2030.5,1429.5C 2030.5,1435.5 2030.5,1441.5 2030.5,1447.5C 2031.83,1447.5 2033.17,1447.5 2034.5,1447.5C 2034.5,1451.83 2034.5,1456.17 2034.5,1460.5C 2035.83,1460.5 2037.17,1460.5 2038.5,1460.5C 2038.5,1466.17 2038.5,1471.83 2038.5,1477.5C 2039.83,1477.5 2041.17,1477.5 2042.5,1477.5C 2042.5,1481.83 2042.5,1486.17 2042.5,1490.5C 2044.17,1490.5 2045.83,1490.5 2047.5,1490.5C 2047.5,1494.83 2047.5,1499.17 2047.5,1503.5C 2048.83,1503.5 2050.17,1503.5 2051.5,1503.5C 2051.5,1507.83 2051.5,1512.17 2051.5,1516.5C 2052.83,1516.5 2054.17,1516.5 2055.5,1516.5C 2055.5,1522.17 2055.5,1527.83 2055.5,1533.5C 2057.17,1533.5 2058.83,1533.5 2060.5,1533.5C 2060.5,1539.17 2060.5,1544.83 2060.5,1550.5C 2061.83,1550.5 2063.17,1550.5 2064.5,1550.5C 2064.5,1554.83 2064.5,1559.17 2064.5,1563.5C 2065.83,1563.5 2067.17,1563.5 2068.5,1563.5C 2068.5,1570.83 2068.5,1578.17 2068.5,1585.5C 2070.17,1585.5 2071.83,1585.5 2073.5,1585.5C 2073.5,1591.17 2073.5,1596.83 2073.5,1602.5C 2074.83,1602.5 2076.17,1602.5 2077.5,1602.5C 2077.5,1608.5 2077.5,1614.5 2077.5,1620.5C 2078.83,1620.5 2080.17,1620.5 2081.5,1620.5C 2081.5,1626.17 2081.5,1631.83 2081.5,1637.5C 2083.17,1637.5 2084.83,1637.5 2086.5,1637.5C 2086.5,1644.5 2086.5,1651.5 2086.5,1658.5C 2087.83,1658.5 2089.17,1658.5 2090.5,1658.5C 2090.5,1664.5 2090.5,1670.5 2090.5,1676.5C 2091.83,1676.5 2093.17,1676.5 2094.5,1676.5C 2094.5,1682.17 2094.5,1687.83 2094.5,1693.5C 2096.17,1693.5 2097.83,1693.5 2099.5,1693.5C 2099.5,1700.83 2099.5,1708.17 2099.5,1715.5C 2100.83,1715.5 2102.17,1715.5 2103.5,1715.5C 2103.5,1724.17 2103.5,1732.83 2103.5,1741.5C 2104.83,1741.5 2106.17,1741.5 2107.5,1741.5C 2107.5,1750.17 2107.5,1758.83 2107.5,1767.5C 2109.17,1767.5 2110.83,1767.5 2112.5,1767.5C 2112.5,1780.17 2112.5,1792.83 2112.5,1805.5C 2113.83,1805.5 2115.17,1805.5 2116.5,1805.5C 2116.5,1840.17 2116.5,1874.83 2116.5,1909.5C 2115.17,1909.5 2113.83,1909.5 2112.5,1909.5C 2112.5,1928.17 2112.5,1946.83 2112.5,1965.5C 2110.83,1965.5 2109.17,1965.5 2107.5,1965.5C 2107.5,1971.5 2107.5,1977.5 2107.5,1983.5C 2106.17,1983.5 2104.83,1983.5 2103.5,1983.5C 2103.5,1986.17 2103.5,1988.83 2103.5,1991.5C 2102.17,1991.5 2100.83,1991.5 2099.5,1991.5C 2099.5,1995.83 2099.5,2000.17 2099.5,2004.5C 2097.83,2004.5 2096.17,2004.5 2094.5,2004.5C 2094.5,2007.5 2094.5,2010.5 2094.5,2013.5C 2093.17,2013.5 2091.83,2013.5 2090.5,2013.5C 2090.5,2016.5 2090.5,2019.5 2090.5,2022.5C 2089.17,2022.5 2087.83,2022.5 2086.5,2022.5C 2086.5,2025.17 2086.5,2027.83 2086.5,2030.5C 2084.83,2030.5 2083.17,2030.5 2081.5,2030.5C 2081.5,2033.5 2081.5,2036.5 2081.5,2039.5C 2080.17,2039.5 2078.83,2039.5 2077.5,2039.5C 2077.5,2040.83 2077.5,2042.17 2077.5,2043.5C 2076.17,2043.5 2074.83,2043.5 2073.5,2043.5C 2073.5,2046.5 2073.5,2049.5 2073.5,2052.5C 2070.5,2052.5 2067.5,2052.5 2064.5,2052.5C 2064.5,2055.17 2064.5,2057.83 2064.5,2060.5C 2063.17,2060.5 2061.83,2060.5 2060.5,2060.5C 2060.5,2063.5 2060.5,2066.5 2060.5,2069.5C 2058.83,2069.5 2057.17,2069.5 2055.5,2069.5C 2055.5,2072.5 2055.5,2075.5 2055.5,2078.5C 2054.17,2078.5 2052.83,2078.5 2051.5,2078.5C 2051.5,2082.83 2051.5,2087.17 2051.5,2091.5C 2050.17,2091.5 2048.83,2091.5 2047.5,2091.5C 2047.5,2092.83 2047.5,2094.17 2047.5,2095.5C 2045.83,2095.5 2044.17,2095.5 2042.5,2095.5C 2042.5,2098.5 2042.5,2101.5 2042.5,2104.5C 2041.17,2104.5 2039.83,2104.5 2038.5,2104.5C 2038.5,2105.83 2038.5,2107.17 2038.5,2108.5C 2037.17,2108.5 2035.83,2108.5 2034.5,2108.5C 2034.5,2112.83 2034.5,2117.17 2034.5,2121.5C 2033.17,2121.5 2031.83,2121.5 2030.5,2121.5C 2030.5,2122.83 2030.5,2124.17 2030.5,2125.5C 2028.83,2125.5 2027.17,2125.5 2025.5,2125.5C 2025.5,2127.17 2025.5,2128.83 2025.5,2130.5C 2024.17,2130.5 2022.83,2130.5 2021.5,2130.5C 2021.5,2131.83 2021.5,2133.17 2021.5,2134.5C 2020.17,2134.5 2018.83,2134.5 2017.5,2134.5C 2017.5,2135.83 2017.5,2137.17 2017.5,2138.5C 2015.83,2138.5 2014.17,2138.5 2012.5,2138.5C 2012.5,2141.5 2012.5,2144.5 2012.5,2147.5C 2009.83,2147.5 2007.17,2147.5 2004.5,2147.5C 2004.5,2148.83 2004.5,2150.17 2004.5,2151.5C 2002.83,2151.5 2001.17,2151.5 1999.5,2151.5C 1999.5,2153.17 1999.5,2154.83 1999.5,2156.5C 1998.17,2156.5 1996.83,2156.5 1995.5,2156.5C 1995.5,2159.17 1995.5,2161.83 1995.5,2164.5C 1992.5,2164.5 1989.5,2164.5 1986.5,2164.5C 1986.5,2165.83 1986.5,2167.17 1986.5,2168.5C 1985.17,2168.5 1983.83,2168.5 1982.5,2168.5C 1982.5,2170.17 1982.5,2171.83 1982.5,2173.5C 1979.5,2173.5 1976.5,2173.5 1973.5,2173.5C 1973.5,2174.83 1973.5,2176.17 1973.5,2177.5C 1970.83,2177.5 1968.17,2177.5 1965.5,2177.5C 1965.5,2178.83 1965.5,2180.17 1965.5,2181.5C 1963.83,2181.5 1962.17,2181.5 1960.5,2181.5C 1960.5,2183.17 1960.5,2184.83 1960.5,2186.5C 1957.83,2186.5 1955.17,2186.5 1952.5,2186.5C 1952.5,2187.83 1952.5,2189.17 1952.5,2190.5C 1949.5,2190.5 1946.5,2190.5 1943.5,2190.5C 1943.5,2191.83 1943.5,2193.17 1943.5,2194.5C 1939.17,2194.5 1934.83,2194.5 1930.5,2194.5C 1930.5,2196.17 1930.5,2197.83 1930.5,2199.5C 1926.17,2199.5 1921.83,2199.5 1917.5,2199.5C 1917.5,2200.83 1917.5,2202.17 1917.5,2203.5C 1913.17,2203.5 1908.83,2203.5 1904.5,2203.5C 1904.5,2204.83 1904.5,2206.17 1904.5,2207.5C 1900.17,2207.5 1895.83,2207.5 1891.5,2207.5C 1891.5,2209.17 1891.5,2210.83 1891.5,2212.5C 1882.83,2212.5 1874.17,2212.5 1865.5,2212.5C 1865.5,2213.83 1865.5,2215.17 1865.5,2216.5C 1841.17,2216.5 1816.83,2216.5 1792.5,2216.5C 1792.5,2215.17 1792.5,2213.83 1792.5,2212.5C 1782.17,2212.5 1771.83,2212.5 1761.5,2212.5C 1761.5,2210.83 1761.5,2209.17 1761.5,2207.5C 1754.5,2207.5 1747.5,2207.5 1740.5,2207.5C 1740.5,2206.17 1740.5,2204.83 1740.5,2203.5C 1734.5,2203.5 1728.5,2203.5 1722.5,2203.5C 1722.5,2202.17 1722.5,2200.83 1722.5,2199.5C 1718.17,2199.5 1713.83,2199.5 1709.5,2199.5C 1709.5,2197.83 1709.5,2196.17 1709.5,2194.5C 1703.83,2194.5 1698.17,2194.5 1692.5,2194.5C 1692.5,2193.17 1692.5,2191.83 1692.5,2190.5C 1689.5,2190.5 1686.5,2190.5 1683.5,2190.5C 1683.5,2189.17 1683.5,2187.83 1683.5,2186.5C 1679.17,2186.5 1674.83,2186.5 1670.5,2186.5C 1670.5,2184.83 1670.5,2183.17 1670.5,2181.5C 1667.83,2181.5 1665.17,2181.5 1662.5,2181.5C 1662.5,2180.17 1662.5,2178.83 1662.5,2177.5C 1659.5,2177.5 1656.5,2177.5 1653.5,2177.5C 1653.5,2176.17 1653.5,2174.83 1653.5,2173.5C 1650.5,2173.5 1647.5,2173.5 1644.5,2173.5C 1644.5,2171.83 1644.5,2170.17 1644.5,2168.5C 1641.83,2168.5 1639.17,2168.5 1636.5,2168.5C 1636.5,2167.17 1636.5,2165.83 1636.5,2164.5C 1633.5,2164.5 1630.5,2164.5 1627.5,2164.5C 1627.5,2163.17 1627.5,2161.83 1627.5,2160.5C 1624.83,2160.5 1622.17,2160.5 1619.5,2160.5C 1619.5,2159.17 1619.5,2157.83 1619.5,2156.5C 1616.5,2156.5 1613.5,2156.5 1610.5,2156.5C 1610.5,2154.83 1610.5,2153.17 1610.5,2151.5C 1609.17,2151.5 1607.83,2151.5 1606.5,2151.5C 1606.5,2150.17 1606.5,2148.83 1606.5,2147.5C 1603.5,2147.5 1600.5,2147.5 1597.5,2147.5C 1597.5,2146.17 1597.5,2144.83 1597.5,2143.5C 1594.5,2143.5 1591.5,2143.5 1588.5,2143.5C 1588.5,2141.83 1588.5,2140.17 1588.5,2138.5C 1587.17,2138.5 1585.83,2138.5 1584.5,2138.5C 1584.5,2137.17 1584.5,2135.83 1584.5,2134.5C 1581.5,2134.5 1578.5,2134.5 1575.5,2134.5C 1575.5,2133.17 1575.5,2131.83 1575.5,2130.5C 1574.17,2130.5 1572.83,2130.5 1571.5,2130.5C 1571.5,2128.83 1571.5,2127.17 1571.5,2125.5C 1568.5,2125.5 1565.5,2125.5 1562.5,2125.5C 1562.5,2124.17 1562.5,2122.83 1562.5,2121.5C 1559.83,2121.5 1557.17,2121.5 1554.5,2121.5C 1554.5,2120.17 1554.5,2118.83 1554.5,2117.5C 1552.83,2117.5 1551.17,2117.5 1549.5,2117.5C 1549.5,2115.83 1549.5,2114.17 1549.5,2112.5C 1548.17,2112.5 1546.83,2112.5 1545.5,2112.5C 1545.5,2111.17 1545.5,2109.83 1545.5,2108.5C 1542.5,2108.5 1539.5,2108.5 1536.5,2108.5C 1536.5,2107.17 1536.5,2105.83 1536.5,2104.5C 1535.17,2104.5 1533.83,2104.5 1532.5,2104.5C 1532.5,2102.83 1532.5,2101.17 1532.5,2099.5C 1529.5,2099.5 1526.5,2099.5 1523.5,2099.5C 1523.5,2098.17 1523.5,2096.83 1523.5,2095.5C 1522.17,2095.5 1520.83,2095.5 1519.5,2095.5C 1519.5,2094.17 1519.5,2092.83 1519.5,2091.5C 1518.17,2091.5 1516.83,2091.5 1515.5,2091.5C 1515.5,2089.83 1515.5,2088.17 1515.5,2086.5C 1513.83,2086.5 1512.17,2086.5 1510.5,2086.5C 1510.5,2085.17 1510.5,2083.83 1510.5,2082.5C 1507.83,2082.5 1505.17,2082.5 1502.5,2082.5C 1502.5,2081.17 1502.5,2079.83 1502.5,2078.5C 1500.83,2078.5 1499.17,2078.5 1497.5,2078.5C 1497.5,2076.83 1497.5,2075.17 1497.5,2073.5C 1494.83,2073.5 1492.17,2073.5 1489.5,2073.5C 1489.5,2072.17 1489.5,2070.83 1489.5,2069.5C 1487.83,2069.5 1486.17,2069.5 1484.5,2069.5C 1484.5,2068.17 1484.5,2066.83 1484.5,2065.5C 1483.17,2065.5 1481.83,2065.5 1480.5,2065.5C 1480.5,2063.83 1480.5,2062.17 1480.5,2060.5C 1479.17,2060.5 1477.83,2060.5 1476.5,2060.5C 1476.5,2059.17 1476.5,2057.83 1476.5,2056.5C 1474.83,2056.5 1473.17,2056.5 1471.5,2056.5C 1471.5,2055.17 1471.5,2053.83 1471.5,2052.5C 1470.17,2052.5 1468.83,2052.5 1467.5,2052.5C 1467.5,2050.83 1467.5,2049.17 1467.5,2047.5C 1464.5,2047.5 1461.5,2047.5 1458.5,2047.5C 1458.5,2046.17 1458.5,2044.83 1458.5,2043.5C 1457.17,2043.5 1455.83,2043.5 1454.5,2043.5C 1454.5,2042.17 1454.5,2040.83 1454.5,2039.5C 1453.17,2039.5 1451.83,2039.5 1450.5,2039.5C 1450.5,2038.17 1450.5,2036.83 1450.5,2035.5C 1447.5,2035.5 1444.5,2035.5 1441.5,2035.5C 1441.5,2033.83 1441.5,2032.17 1441.5,2030.5C 1440.17,2030.5 1438.83,2030.5 1437.5,2030.5C 1437.5,2029.17 1437.5,2027.83 1437.5,2026.5C 1435.83,2026.5 1434.17,2026.5 1432.5,2026.5C 1432.5,2025.17 1432.5,2023.83 1432.5,2022.5C 1431.17,2022.5 1429.83,2022.5 1428.5,2022.5C 1428.5,2020.83 1428.5,2019.17 1428.5,2017.5C 1427.17,2017.5 1425.83,2017.5 1424.5,2017.5C 1424.5,2016.17 1424.5,2014.83 1424.5,2013.5C 1423.17,2013.5 1421.83,2013.5 1420.5,2013.5C 1420.5,2012.17 1420.5,2010.83 1420.5,2009.5C 1417.5,2009.5 1414.5,2009.5 1411.5,2009.5C 1411.5,2007.83 1411.5,2006.17 1411.5,2004.5C 1410.17,2004.5 1408.83,2004.5 1407.5,2004.5C 1407.5,2003.17 1407.5,2001.83 1407.5,2000.5C 1405.83,2000.5 1404.17,2000.5 1402.5,2000.5C 1402.5,1999.17 1402.5,1997.83 1402.5,1996.5C 1401.17,1996.5 1399.83,1996.5 1398.5,1996.5C 1398.5,1994.83 1398.5,1993.17 1398.5,1991.5C 1397.17,1991.5 1395.83,1991.5 1394.5,1991.5C 1394.5,1990.17 1394.5,1988.83 1394.5,1987.5C 1392.83,1987.5 1391.17,1987.5 1389.5,1987.5C 1389.5,1986.17 1389.5,1984.83 1389.5,1983.5C 1388.17,1983.5 1386.83,1983.5 1385.5,1983.5C 1385.5,1981.83 1385.5,1980.17 1385.5,1978.5C 1382.5,1978.5 1379.5,1978.5 1376.5,1978.5C 1376.5,1977.17 1376.5,1975.83 1376.5,1974.5C 1375.17,1974.5 1373.83,1974.5 1372.5,1974.5C 1372.5,1973.17 1372.5,1971.83 1372.5,1970.5C 1371.17,1970.5 1369.83,1970.5 1368.5,1970.5C 1368.5,1968.83 1368.5,1967.17 1368.5,1965.5C 1366.83,1965.5 1365.17,1965.5 1363.5,1965.5C 1363.5,1964.17 1363.5,1962.83 1363.5,1961.5C 1362.17,1961.5 1360.83,1961.5 1359.5,1961.5C 1359.5,1960.17 1359.5,1958.83 1359.5,1957.5C 1358.17,1957.5 1356.83,1957.5 1355.5,1957.5C 1355.5,1955.83 1355.5,1954.17 1355.5,1952.5C 1353.83,1952.5 1352.17,1952.5 1350.5,1952.5C 1350.5,1951.17 1350.5,1949.83 1350.5,1948.5C 1349.17,1948.5 1347.83,1948.5 1346.5,1948.5C 1346.5,1947.17 1346.5,1945.83 1346.5,1944.5C 1345.17,1944.5 1343.83,1944.5 1342.5,1944.5C 1342.5,1942.83 1342.5,1941.17 1342.5,1939.5C 1340.83,1939.5 1339.17,1939.5 1337.5,1939.5C 1337.5,1938.17 1337.5,1936.83 1337.5,1935.5C 1336.17,1935.5 1334.83,1935.5 1333.5,1935.5C 1333.5,1934.17 1333.5,1932.83 1333.5,1931.5C 1332.17,1931.5 1330.83,1931.5 1329.5,1931.5C 1329.5,1929.83 1329.5,1928.17 1329.5,1926.5C 1327.83,1926.5 1326.17,1926.5 1324.5,1926.5C 1324.5,1925.17 1324.5,1923.83 1324.5,1922.5C 1323.17,1922.5 1321.83,1922.5 1320.5,1922.5C 1320.5,1921.17 1320.5,1919.83 1320.5,1918.5C 1319.17,1918.5 1317.83,1918.5 1316.5,1918.5C 1316.5,1917.17 1316.5,1915.83 1316.5,1914.5C 1314.83,1914.5 1313.17,1914.5 1311.5,1914.5C 1311.5,1912.83 1311.5,1911.17 1311.5,1909.5C 1310.17,1909.5 1308.83,1909.5 1307.5,1909.5C 1307.5,1908.17 1307.5,1906.83 1307.5,1905.5C 1306.17,1905.5 1304.83,1905.5 1303.5,1905.5C 1303.5,1904.17 1303.5,1902.83 1303.5,1901.5C 1301.83,1901.5 1300.17,1901.5 1298.5,1901.5C 1298.5,1899.83 1298.5,1898.17 1298.5,1896.5C 1297.17,1896.5 1295.83,1896.5 1294.5,1896.5C 1294.5,1895.17 1294.5,1893.83 1294.5,1892.5C 1293.17,1892.5 1291.83,1892.5 1290.5,1892.5C 1290.5,1891.17 1290.5,1889.83 1290.5,1888.5C 1288.83,1888.5 1287.17,1888.5 1285.5,1888.5C 1285.5,1886.83 1285.5,1885.17 1285.5,1883.5C 1284.17,1883.5 1282.83,1883.5 1281.5,1883.5C 1281.5,1882.17 1281.5,1880.83 1281.5,1879.5C 1280.17,1879.5 1278.83,1879.5 1277.5,1879.5C 1277.5,1878.17 1277.5,1876.83 1277.5,1875.5C 1275.83,1875.5 1274.17,1875.5 1272.5,1875.5C 1272.5,1873.83 1272.5,1872.17 1272.5,1870.5C 1271.17,1870.5 1269.83,1870.5 1268.5,1870.5C 1268.5,1869.17 1268.5,1867.83 1268.5,1866.5C 1267.17,1866.5 1265.83,1866.5 1264.5,1866.5C 1264.5,1865.17 1264.5,1863.83 1264.5,1862.5C 1262.83,1862.5 1261.17,1862.5 1259.5,1862.5C 1259.5,1860.83 1259.5,1859.17 1259.5,1857.5C 1258.17,1857.5 1256.83,1857.5 1255.5,1857.5C 1255.5,1856.17 1255.5,1854.83 1255.5,1853.5C 1254.17,1853.5 1252.83,1853.5 1251.5,1853.5C 1251.5,1852.17 1251.5,1850.83 1251.5,1849.5C 1249.83,1849.5 1248.17,1849.5 1246.5,1849.5C 1246.5,1846.5 1246.5,1843.5 1246.5,1840.5C 1245.17,1840.5 1243.83,1840.5 1242.5,1840.5C 1242.5,1839.17 1242.5,1837.83 1242.5,1836.5C 1241.17,1836.5 1239.83,1836.5 1238.5,1836.5C 1238.5,1834.83 1238.5,1833.17 1238.5,1831.5C 1237.17,1831.5 1235.83,1831.5 1234.5,1831.5C 1234.5,1830.17 1234.5,1828.83 1234.5,1827.5C 1232.83,1827.5 1231.17,1827.5 1229.5,1827.5C 1229.5,1826.17 1229.5,1824.83 1229.5,1823.5C 1228.17,1823.5 1226.83,1823.5 1225.5,1823.5C 1225.5,1821.83 1225.5,1820.17 1225.5,1818.5C 1224.17,1818.5 1222.83,1818.5 1221.5,1818.5C 1221.5,1817.17 1221.5,1815.83 1221.5,1814.5C 1219.83,1814.5 1218.17,1814.5 1216.5,1814.5C 1216.5,1813.17 1216.5,1811.83 1216.5,1810.5C 1215.17,1810.5 1213.83,1810.5 1212.5,1810.5C 1212.5,1808.83 1212.5,1807.17 1212.5,1805.5C 1211.17,1805.5 1209.83,1805.5 1208.5,1805.5C 1208.5,1802.83 1208.5,1800.17 1208.5,1797.5C 1206.83,1797.5 1205.17,1797.5 1203.5,1797.5C 1203.5,1795.83 1203.5,1794.17 1203.5,1792.5C 1202.17,1792.5 1200.83,1792.5 1199.5,1792.5C 1199.5,1791.17 1199.5,1789.83 1199.5,1788.5C 1198.17,1788.5 1196.83,1788.5 1195.5,1788.5C 1195.5,1787.17 1195.5,1785.83 1195.5,1784.5C 1193.83,1784.5 1192.17,1784.5 1190.5,1784.5C 1190.5,1783.17 1190.5,1781.83 1190.5,1780.5C 1189.17,1780.5 1187.83,1780.5 1186.5,1780.5C 1186.5,1777.5 1186.5,1774.5 1186.5,1771.5C 1185.17,1771.5 1183.83,1771.5 1182.5,1771.5C 1182.5,1770.17 1182.5,1768.83 1182.5,1767.5C 1180.83,1767.5 1179.17,1767.5 1177.5,1767.5C 1177.5,1765.83 1177.5,1764.17 1177.5,1762.5C 1176.17,1762.5 1174.83,1762.5 1173.5,1762.5C 1173.5,1761.17 1173.5,1759.83 1173.5,1758.5C 1172.17,1758.5 1170.83,1758.5 1169.5,1758.5C 1169.5,1757.17 1169.5,1755.83 1169.5,1754.5C 1167.83,1754.5 1166.17,1754.5 1164.5,1754.5C 1164.5,1752.83 1164.5,1751.17 1164.5,1749.5C 1163.17,1749.5 1161.83,1749.5 1160.5,1749.5C 1160.5,1746.83 1160.5,1744.17 1160.5,1741.5C 1159.17,1741.5 1157.83,1741.5 1156.5,1741.5C 1156.5,1739.83 1156.5,1738.17 1156.5,1736.5C 1154.83,1736.5 1153.17,1736.5 1151.5,1736.5C 1151.5,1735.17 1151.5,1733.83 1151.5,1732.5C 1150.17,1732.5 1148.83,1732.5 1147.5,1732.5C 1147.5,1731.17 1147.5,1729.83 1147.5,1728.5C 1146.17,1728.5 1144.83,1728.5 1143.5,1728.5C 1143.5,1726.83 1143.5,1725.17 1143.5,1723.5C 1141.83,1723.5 1140.17,1723.5 1138.5,1723.5C 1138.5,1720.83 1138.5,1718.17 1138.5,1715.5C 1137.17,1715.5 1135.83,1715.5 1134.5,1715.5C 1134.5,1713.83 1134.5,1712.17 1134.5,1710.5C 1133.17,1710.5 1131.83,1710.5 1130.5,1710.5C 1130.5,1709.17 1130.5,1707.83 1130.5,1706.5C 1128.83,1706.5 1127.17,1706.5 1125.5,1706.5C 1125.5,1705.17 1125.5,1703.83 1125.5,1702.5C 1124.17,1702.5 1122.83,1702.5 1121.5,1702.5C 1121.5,1699.5 1121.5,1696.5 1121.5,1693.5C 1120.17,1693.5 1118.83,1693.5 1117.5,1693.5C 1117.5,1692.17 1117.5,1690.83 1117.5,1689.5C 1115.83,1689.5 1114.17,1689.5 1112.5,1689.5C 1112.5,1687.83 1112.5,1686.17 1112.5,1684.5C 1111.17,1684.5 1109.83,1684.5 1108.5,1684.5C 1108.5,1683.17 1108.5,1681.83 1108.5,1680.5C 1107.17,1680.5 1105.83,1680.5 1104.5,1680.5C 1104.5,1679.17 1104.5,1677.83 1104.5,1676.5C 1102.83,1676.5 1101.17,1676.5 1099.5,1676.5C 1099.5,1674.83 1099.5,1673.17 1099.5,1671.5C 1098.17,1671.5 1096.83,1671.5 1095.5,1671.5C 1095.5,1668.83 1095.5,1666.17 1095.5,1663.5C 1094.17,1663.5 1092.83,1663.5 1091.5,1663.5C 1091.5,1662.17 1091.5,1660.83 1091.5,1659.5C 1089.83,1659.5 1088.17,1659.5 1086.5,1659.5C 1086.5,1657.83 1086.5,1656.17 1086.5,1654.5C 1085.17,1654.5 1083.83,1654.5 1082.5,1654.5C 1082.5,1653.17 1082.5,1651.83 1082.5,1650.5C 1081.17,1650.5 1079.83,1650.5 1078.5,1650.5C 1078.5,1647.5 1078.5,1644.5 1078.5,1641.5C 1076.83,1641.5 1075.17,1641.5 1073.5,1641.5C 1073.5,1640.17 1073.5,1638.83 1073.5,1637.5C 1072.17,1637.5 1070.83,1637.5 1069.5,1637.5C 1069.5,1636.17 1069.5,1634.83 1069.5,1633.5C 1068.17,1633.5 1066.83,1633.5 1065.5,1633.5C 1065.5,1631.83 1065.5,1630.17 1065.5,1628.5C 1063.83,1628.5 1062.17,1628.5 1060.5,1628.5C 1060.5,1625.83 1060.5,1623.17 1060.5,1620.5C 1059.17,1620.5 1057.83,1620.5 1056.5,1620.5C 1056.5,1618.83 1056.5,1617.17 1056.5,1615.5C 1055.17,1615.5 1053.83,1615.5 1052.5,1615.5C 1052.5,1614.17 1052.5,1612.83 1052.5,1611.5C 1050.83,1611.5 1049.17,1611.5 1047.5,1611.5C 1047.5,1608.5 1047.5,1605.5 1047.5,1602.5C 1046.17,1602.5 1044.83,1602.5 1043.5,1602.5C 1043.5,1601.17 1043.5,1599.83 1043.5,1598.5C 1042.17,1598.5 1040.83,1598.5 1039.5,1598.5C 1039.5,1597.17 1039.5,1595.83 1039.5,1594.5C 1038.17,1594.5 1036.83,1594.5 1035.5,1594.5C 1035.5,1591.5 1035.5,1588.5 1035.5,1585.5C 1033.83,1585.5 1032.17,1585.5 1030.5,1585.5C 1030.5,1584.17 1030.5,1582.83 1030.5,1581.5C 1029.17,1581.5 1027.83,1581.5 1026.5,1581.5C 1026.5,1579.83 1026.5,1578.17 1026.5,1576.5C 1025.17,1576.5 1023.83,1576.5 1022.5,1576.5C 1022.5,1573.83 1022.5,1571.17 1022.5,1568.5C 1020.83,1568.5 1019.17,1568.5 1017.5,1568.5C 1017.5,1566.83 1017.5,1565.17 1017.5,1563.5C 1016.17,1563.5 1014.83,1563.5 1013.5,1563.5C 1013.5,1562.17 1013.5,1560.83 1013.5,1559.5C 1012.17,1559.5 1010.83,1559.5 1009.5,1559.5C 1009.5,1556.5 1009.5,1553.5 1009.5,1550.5C 1007.83,1550.5 1006.17,1550.5 1004.5,1550.5C 1004.5,1549.17 1004.5,1547.83 1004.5,1546.5C 1003.17,1546.5 1001.83,1546.5 1000.5,1546.5C 1000.5,1545.17 1000.5,1543.83 1000.5,1542.5C 999.167,1542.5 997.833,1542.5 996.5,1542.5C 996.5,1539.5 996.5,1536.5 996.5,1533.5C 994.833,1533.5 993.167,1533.5 991.5,1533.5C 991.5,1532.17 991.5,1530.83 991.5,1529.5C 990.167,1529.5 988.833,1529.5 987.5,1529.5C 987.5,1528.17 987.5,1526.83 987.5,1525.5C 986.167,1525.5 984.833,1525.5 983.5,1525.5C 983.5,1522.5 983.5,1519.5 983.5,1516.5C 981.833,1516.5 980.167,1516.5 978.5,1516.5C 978.5,1515.17 978.5,1513.83 978.5,1512.5C 977.167,1512.5 975.833,1512.5 974.5,1512.5C 974.5,1510.83 974.5,1509.17 974.5,1507.5C 973.167,1507.5 971.833,1507.5 970.5,1507.5C 970.5,1504.83 970.5,1502.17 970.5,1499.5C 968.833,1499.5 967.167,1499.5 965.5,1499.5C 965.5,1497.83 965.5,1496.17 965.5,1494.5C 964.167,1494.5 962.833,1494.5 961.5,1494.5C 961.5,1493.17 961.5,1491.83 961.5,1490.5C 960.167,1490.5 958.833,1490.5 957.5,1490.5C 957.5,1487.5 957.5,1484.5 957.5,1481.5C 955.833,1481.5 954.167,1481.5 952.5,1481.5C 952.5,1480.17 952.5,1478.83 952.5,1477.5C 951.167,1477.5 949.833,1477.5 948.5,1477.5C 948.5,1476.17 948.5,1474.83 948.5,1473.5C 947.167,1473.5 945.833,1473.5 944.5,1473.5C 944.5,1470.5 944.5,1467.5 944.5,1464.5C 942.833,1464.5 941.167,1464.5 939.5,1464.5C 939.5,1463.17 939.5,1461.83 939.5,1460.5C 938.167,1460.5 936.833,1460.5 935.5,1460.5C 935.5,1458.83 935.5,1457.17 935.5,1455.5C 934.167,1455.5 932.833,1455.5 931.5,1455.5C 931.5,1452.83 931.5,1450.17 931.5,1447.5C 929.833,1447.5 928.167,1447.5 926.5,1447.5C 926.5,1445.83 926.5,1444.17 926.5,1442.5C 925.167,1442.5 923.833,1442.5 922.5,1442.5C 922.5,1439.83 922.5,1437.17 922.5,1434.5C 921.167,1434.5 919.833,1434.5 918.5,1434.5C 918.5,1432.83 918.5,1431.17 918.5,1429.5C 916.833,1429.5 915.167,1429.5 913.5,1429.5C 913.5,1428.17 913.5,1426.83 913.5,1425.5C 912.167,1425.5 910.833,1425.5 909.5,1425.5C 909.5,1422.83 909.5,1420.17 909.5,1417.5C 908.167,1417.5 906.833,1417.5 905.5,1417.5C 905.5,1415.83 905.5,1414.17 905.5,1412.5C 903.833,1412.5 902.167,1412.5 900.5,1412.5C 900.5,1409.83 900.5,1407.17 900.5,1404.5C 899.167,1404.5 897.833,1404.5 896.5,1404.5C 896.5,1402.83 896.5,1401.17 896.5,1399.5C 895.167,1399.5 893.833,1399.5 892.5,1399.5C 892.5,1396.83 892.5,1394.17 892.5,1391.5C 890.833,1391.5 889.167,1391.5 887.5,1391.5C 887.5,1389.83 887.5,1388.17 887.5,1386.5C 886.167,1386.5 884.833,1386.5 883.5,1386.5C 883.5,1385.17 883.5,1383.83 883.5,1382.5C 882.167,1382.5 880.833,1382.5 879.5,1382.5C 879.5,1379.5 879.5,1376.5 879.5,1373.5C 877.833,1373.5 876.167,1373.5 874.5,1373.5C 874.5,1372.17 874.5,1370.83 874.5,1369.5C 873.167,1369.5 871.833,1369.5 870.5,1369.5C 870.5,1366.5 870.5,1363.5 870.5,1360.5C 869.167,1360.5 867.833,1360.5 866.5,1360.5C 866.5,1359.17 866.5,1357.83 866.5,1356.5C 864.833,1356.5 863.167,1356.5 861.5,1356.5C 861.5,1355.17 861.5,1353.83 861.5,1352.5C 860.167,1352.5 858.833,1352.5 857.5,1352.5C 857.5,1349.5 857.5,1346.5 857.5,1343.5C 856.167,1343.5 854.833,1343.5 853.5,1343.5C 853.5,1342.17 853.5,1340.83 853.5,1339.5C 852.167,1339.5 850.833,1339.5 849.5,1339.5C 849.5,1336.5 849.5,1333.5 849.5,1330.5C 847.833,1330.5 846.167,1330.5 844.5,1330.5C 844.5,1329.17 844.5,1327.83 844.5,1326.5C 843.167,1326.5 841.833,1326.5 840.5,1326.5C 840.5,1323.5 840.5,1320.5 840.5,1317.5C 839.167,1317.5 837.833,1317.5 836.5,1317.5C 836.5,1316.17 836.5,1314.83 836.5,1313.5C 834.833,1313.5 833.167,1313.5 831.5,1313.5C 831.5,1310.5 831.5,1307.5 831.5,1304.5C 830.167,1304.5 828.833,1304.5 827.5,1304.5C 827.5,1303.17 827.5,1301.83 827.5,1300.5C 826.167,1300.5 824.833,1300.5 823.5,1300.5C 823.5,1299.17 823.5,1297.83 823.5,1296.5C 821.833,1296.5 820.167,1296.5 818.5,1296.5C 818.5,1293.5 818.5,1290.5 818.5,1287.5C 817.167,1287.5 815.833,1287.5 814.5,1287.5C 814.5,1286.17 814.5,1284.83 814.5,1283.5C 813.167,1283.5 811.833,1283.5 810.5,1283.5C 810.5,1280.5 810.5,1277.5 810.5,1274.5C 808.833,1274.5 807.167,1274.5 805.5,1274.5C 805.5,1273.17 805.5,1271.83 805.5,1270.5C 804.167,1270.5 802.833,1270.5 801.5,1270.5C 801.5,1267.5 801.5,1264.5 801.5,1261.5C 800.167,1261.5 798.833,1261.5 797.5,1261.5C 797.5,1260.17 797.5,1258.83 797.5,1257.5C 795.833,1257.5 794.167,1257.5 792.5,1257.5C 792.5,1254.5 792.5,1251.5 792.5,1248.5C 791.167,1248.5 789.833,1248.5 788.5,1248.5C 788.5,1247.17 788.5,1245.83 788.5,1244.5C 787.167,1244.5 785.833,1244.5 784.5,1244.5C 784.5,1241.5 784.5,1238.5 784.5,1235.5C 782.833,1235.5 781.167,1235.5 779.5,1235.5C 779.5,1234.17 779.5,1232.83 779.5,1231.5C 778.167,1231.5 776.833,1231.5 775.5,1231.5C 775.5,1228.5 775.5,1225.5 775.5,1222.5C 774.167,1222.5 772.833,1222.5 771.5,1222.5C 771.5,1219.5 771.5,1216.5 771.5,1213.5C 769.833,1213.5 768.167,1213.5 766.5,1213.5C 766.5,1212.17 766.5,1210.83 766.5,1209.5C 765.167,1209.5 763.833,1209.5 762.5,1209.5C 762.5,1206.5 762.5,1203.5 762.5,1200.5C 761.167,1200.5 759.833,1200.5 758.5,1200.5C 758.5,1199.17 758.5,1197.83 758.5,1196.5C 756.833,1196.5 755.167,1196.5 753.5,1196.5C 753.5,1193.5 753.5,1190.5 753.5,1187.5C 752.167,1187.5 750.833,1187.5 749.5,1187.5C 749.5,1186.17 749.5,1184.83 749.5,1183.5C 748.167,1183.5 746.833,1183.5 745.5,1183.5C 745.5,1180.83 745.5,1178.17 745.5,1175.5C 743.833,1175.5 742.167,1175.5 740.5,1175.5C 740.5,1172.5 740.5,1169.5 740.5,1166.5C 739.167,1166.5 737.833,1166.5 736.5,1166.5C 736.5,1165.17 736.5,1163.83 736.5,1162.5C 735.167,1162.5 733.833,1162.5 732.5,1162.5C 732.5,1159.5 732.5,1156.5 732.5,1153.5C 730.833,1153.5 729.167,1153.5 727.5,1153.5C 727.5,1152.17 727.5,1150.83 727.5,1149.5C 726.167,1149.5 724.833,1149.5 723.5,1149.5C 723.5,1146.5 723.5,1143.5 723.5,1140.5C 722.167,1140.5 720.833,1140.5 719.5,1140.5C 719.5,1137.5 719.5,1134.5 719.5,1131.5C 717.833,1131.5 716.167,1131.5 714.5,1131.5C 714.5,1130.17 714.5,1128.83 714.5,1127.5C 713.167,1127.5 711.833,1127.5 710.5,1127.5C 710.5,1124.5 710.5,1121.5 710.5,1118.5C 709.167,1118.5 707.833,1118.5 706.5,1118.5C 706.5,1117.17 706.5,1115.83 706.5,1114.5C 704.833,1114.5 703.167,1114.5 701.5,1114.5C 701.5,1111.5 701.5,1108.5 701.5,1105.5C 700.167,1105.5 698.833,1105.5 697.5,1105.5C 697.5,1102.83 697.5,1100.17 697.5,1097.5C 696.167,1097.5 694.833,1097.5 693.5,1097.5C 693.5,1095.83 693.5,1094.17 693.5,1092.5C 691.833,1092.5 690.167,1092.5 688.5,1092.5C 688.5,1089.83 688.5,1087.17 688.5,1084.5C 687.167,1084.5 685.833,1084.5 684.5,1084.5C 684.5,1081.5 684.5,1078.5 684.5,1075.5C 683.167,1075.5 681.833,1075.5 680.5,1075.5C 680.5,1074.17 680.5,1072.83 680.5,1071.5C 678.833,1071.5 677.167,1071.5 675.5,1071.5C 675.5,1068.5 675.5,1065.5 675.5,1062.5C 674.167,1062.5 672.833,1062.5 671.5,1062.5C 671.5,1059.5 671.5,1056.5 671.5,1053.5C 670.167,1053.5 668.833,1053.5 667.5,1053.5C 667.5,1052.17 667.5,1050.83 667.5,1049.5C 665.833,1049.5 664.167,1049.5 662.5,1049.5C 662.5,1046.83 662.5,1044.17 662.5,1041.5C 661.167,1041.5 659.833,1041.5 658.5,1041.5C 658.5,1039.83 658.5,1038.17 658.5,1036.5C 657.167,1036.5 655.833,1036.5 654.5,1036.5C 654.5,1033.83 654.5,1031.17 654.5,1028.5C 653.167,1028.5 651.833,1028.5 650.5,1028.5C 650.5,1025.5 650.5,1022.5 650.5,1019.5C 648.833,1019.5 647.167,1019.5 645.5,1019.5C 645.5,1018.17 645.5,1016.83 645.5,1015.5C 644.167,1015.5 642.833,1015.5 641.5,1015.5C 641.5,1012.5 641.5,1009.5 641.5,1006.5C 640.167,1006.5 638.833,1006.5 637.5,1006.5C 637.5,1003.5 637.5,1000.5 637.5,997.5C 635.833,997.5 634.167,997.5 632.5,997.5C 632.5,996.167 632.5,994.833 632.5,993.5C 631.167,993.5 629.833,993.5 628.5,993.5C 628.5,990.5 628.5,987.5 628.5,984.5C 627.167,984.5 625.833,984.5 624.5,984.5C 624.5,981.833 624.5,979.167 624.5,976.5C 622.833,976.5 621.167,976.5 619.5,976.5C 619.5,973.5 619.5,970.5 619.5,967.5C 618.167,967.5 616.833,967.5 615.5,967.5C 615.5,966.167 615.5,964.833 615.5,963.5C 614.167,963.5 612.833,963.5 611.5,963.5C 611.5,960.5 611.5,957.5 611.5,954.5C 609.833,954.5 608.167,954.5 606.5,954.5C 606.5,951.5 606.5,948.5 606.5,945.5C 605.167,945.5 603.833,945.5 602.5,945.5C 602.5,944.167 602.5,942.833 602.5,941.5C 601.167,941.5 599.833,941.5 598.5,941.5C 598.5,938.5 598.5,935.5 598.5,932.5C 596.833,932.5 595.167,932.5 593.5,932.5C 593.5,929.833 593.5,927.167 593.5,924.5C 592.167,924.5 590.833,924.5 589.5,924.5C 589.5,921.5 589.5,918.5 589.5,915.5C 588.167,915.5 586.833,915.5 585.5,915.5C 585.5,912.833 585.5,910.167 585.5,907.5C 583.833,907.5 582.167,907.5 580.5,907.5C 580.5,905.833 580.5,904.167 580.5,902.5C 579.167,902.5 577.833,902.5 576.5,902.5C 576.5,899.833 576.5,897.167 576.5,894.5C 575.167,894.5 573.833,894.5 572.5,894.5C 572.5,891.5 572.5,888.5 572.5,885.5C 570.833,885.5 569.167,885.5 567.5,885.5C 567.5,882.5 567.5,879.5 567.5,876.5C 566.167,876.5 564.833,876.5 563.5,876.5C 563.5,873.833 563.5,871.167 563.5,868.5C 562.167,868.5 560.833,868.5 559.5,868.5C 559.5,866.833 559.5,865.167 559.5,863.5C 557.833,863.5 556.167,863.5 554.5,863.5C 554.5,860.833 554.5,858.167 554.5,855.5C 553.167,855.5 551.833,855.5 550.5,855.5C 550.5,852.5 550.5,849.5 550.5,846.5C 549.167,846.5 547.833,846.5 546.5,846.5C 546.5,843.5 546.5,840.5 546.5,837.5C 544.833,837.5 543.167,837.5 541.5,837.5C 541.5,836.167 541.5,834.833 541.5,833.5C 540.167,833.5 538.833,833.5 537.5,833.5C 537.5,830.5 537.5,827.5 537.5,824.5C 536.167,824.5 534.833,824.5 533.5,824.5C 533.5,821.833 533.5,819.167 533.5,816.5C 531.833,816.5 530.167,816.5 528.5,816.5C 528.5,813.5 528.5,810.5 528.5,807.5C 527.167,807.5 525.833,807.5 524.5,807.5C 524.5,806.167 524.5,804.833 524.5,803.5C 523.167,803.5 521.833,803.5 520.5,803.5C 520.5,800.5 520.5,797.5 520.5,794.5C 518.833,794.5 517.167,794.5 515.5,794.5C 515.5,791.833 515.5,789.167 515.5,786.5C 514.167,786.5 512.833,786.5 511.5,786.5C 511.5,783.5 511.5,780.5 511.5,777.5C 510.167,777.5 508.833,777.5 507.5,777.5C 507.5,776.167 507.5,774.833 507.5,773.5C 505.833,773.5 504.167,773.5 502.5,773.5C 502.5,770.5 502.5,767.5 502.5,764.5C 501.167,764.5 499.833,764.5 498.5,764.5C 498.5,761.5 498.5,758.5 498.5,755.5C 497.167,755.5 495.833,755.5 494.5,755.5C 494.5,752.833 494.5,750.167 494.5,747.5C 492.833,747.5 491.167,747.5 489.5,747.5C 489.5,744.5 489.5,741.5 489.5,738.5C 488.167,738.5 486.833,738.5 485.5,738.5C 485.5,735.5 485.5,732.5 485.5,729.5C 484.167,729.5 482.833,729.5 481.5,729.5C 481.5,728.167 481.5,726.833 481.5,725.5C 479.833,725.5 478.167,725.5 476.5,725.5C 476.5,722.5 476.5,719.5 476.5,716.5C 475.167,716.5 473.833,716.5 472.5,716.5C 472.5,713.833 472.5,711.167 472.5,708.5C 471.167,708.5 469.833,708.5 468.5,708.5C 468.5,705.5 468.5,702.5 468.5,699.5C 467.167,699.5 465.833,699.5 464.5,699.5C 464.5,696.5 464.5,693.5 464.5,690.5C 462.833,690.5 461.167,690.5 459.5,690.5C 459.5,687.833 459.5,685.167 459.5,682.5C 458.167,682.5 456.833,682.5 455.5,682.5C 455.5,679.5 455.5,676.5 455.5,673.5C 454.167,673.5 452.833,673.5 451.5,673.5C 451.5,670.833 451.5,668.167 451.5,665.5C 449.833,665.5 448.167,665.5 446.5,665.5C 446.5,662.5 446.5,659.5 446.5,656.5C 445.167,656.5 443.833,656.5 442.5,656.5C 442.5,653.5 442.5,650.5 442.5,647.5C 441.167,647.5 439.833,647.5 438.5,647.5C 438.5,644.833 438.5,642.167 438.5,639.5C 436.833,639.5 435.167,639.5 433.5,639.5C 433.5,636.5 433.5,633.5 433.5,630.5C 432.167,630.5 430.833,630.5 429.5,630.5C 429.5,627.5 429.5,624.5 429.5,621.5C 428.167,621.5 426.833,621.5 425.5,621.5C 425.5,618.833 425.5,616.167 425.5,613.5C 423.833,613.5 422.167,613.5 420.5,613.5C 420.5,611.833 420.5,610.167 420.5,608.5C 419.167,608.5 417.833,608.5 416.5,608.5C 416.5,605.833 416.5,603.167 416.5,600.5C 415.167,600.5 413.833,600.5 412.5,600.5C 412.5,597.5 412.5,594.5 412.5,591.5C 410.833,591.5 409.167,591.5 407.5,591.5C 407.5,588.5 407.5,585.5 407.5,582.5C 406.167,582.5 404.833,582.5 403.5,582.5C 403.5,579.833 403.5,577.167 403.5,574.5C 402.167,574.5 400.833,574.5 399.5,574.5C 399.5,571.5 399.5,568.5 399.5,565.5C 397.833,565.5 396.167,565.5 394.5,565.5C 394.5,562.833 394.5,560.167 394.5,557.5C 393.167,557.5 391.833,557.5 390.5,557.5C 390.5,554.5 390.5,551.5 390.5,548.5C 389.167,548.5 387.833,548.5 386.5,548.5C 386.5,545.5 386.5,542.5 386.5,539.5C 384.833,539.5 383.167,539.5 381.5,539.5C 381.5,535.167 381.5,530.833 381.5,526.5C 380.167,526.5 378.833,526.5 377.5,526.5C 377.5,523.833 377.5,521.167 377.5,518.5C 376.167,518.5 374.833,518.5 373.5,518.5C 373.5,515.5 373.5,512.5 373.5,509.5C 371.833,509.5 370.167,509.5 368.5,509.5C 368.5,506.5 368.5,503.5 368.5,500.5C 367.167,500.5 365.833,500.5 364.5,500.5C 364.5,497.833 364.5,495.167 364.5,492.5C 363.167,492.5 361.833,492.5 360.5,492.5C 360.5,489.5 360.5,486.5 360.5,483.5C 358.833,483.5 357.167,483.5 355.5,483.5C 355.5,480.5 355.5,477.5 355.5,474.5C 354.167,474.5 352.833,474.5 351.5,474.5C 351.5,471.833 351.5,469.167 351.5,466.5C 350.167,466.5 348.833,466.5 347.5,466.5C 347.5,463.5 347.5,460.5 347.5,457.5C 345.833,457.5 344.167,457.5 342.5,457.5C 342.5,454.5 342.5,451.5 342.5,448.5C 341.167,448.5 339.833,448.5 338.5,448.5C 338.5,444.5 338.5,440.5 338.5,436.5C 337.167,436.5 335.833,436.5 334.5,436.5C 334.5,433.5 334.5,430.5 334.5,427.5C 332.833,427.5 331.167,427.5 329.5,427.5C 329.5,424.5 329.5,421.5 329.5,418.5C 328.167,418.5 326.833,418.5 325.5,418.5C 325.5,415.833 325.5,413.167 325.5,410.5C 324.167,410.5 322.833,410.5 321.5,410.5C 321.5,407.5 321.5,404.5 321.5,401.5C 319.833,401.5 318.167,401.5 316.5,401.5C 316.5,398.5 316.5,395.5 316.5,392.5C 315.167,392.5 313.833,392.5 312.5,392.5C 312.5,388.167 312.5,383.833 312.5,379.5C 311.167,379.5 309.833,379.5 308.5,379.5C 308.5,376.833 308.5,374.167 308.5,371.5C 306.833,371.5 305.167,371.5 303.5,371.5C 303.5,368.5 303.5,365.5 303.5,362.5C 302.167,362.5 300.833,362.5 299.5,362.5C 299.5,359.5 299.5,356.5 299.5,353.5C 298.167,353.5 296.833,353.5 295.5,353.5C 295.5,350.833 295.5,348.167 295.5,345.5C 293.833,345.5 292.167,345.5 290.5,345.5C 290.5,341.167 290.5,336.833 290.5,332.5C 289.167,332.5 287.833,332.5 286.5,332.5C 286.5,329.5 286.5,326.5 286.5,323.5C 285.167,323.5 283.833,323.5 282.5,323.5C 282.5,320.5 282.5,317.5 282.5,314.5C 280.833,314.5 279.167,314.5 277.5,314.5C 277.5,311.833 277.5,309.167 277.5,306.5C 276.167,306.5 274.833,306.5 273.5,306.5C 273.5,302.167 273.5,297.833 273.5,293.5C 272.167,293.5 270.833,293.5 269.5,293.5C 269.5,290.5 269.5,287.5 269.5,284.5C 268.167,284.5 266.833,284.5 265.5,284.5C 265.5,281.833 265.5,279.167 265.5,276.5C 263.833,276.5 262.167,276.5 260.5,276.5C 260.5,273.5 260.5,270.5 260.5,267.5C 259.167,267.5 257.833,267.5 256.5,267.5C 256.5,263.167 256.5,258.833 256.5,254.5C 255.167,254.5 253.833,254.5 252.5,254.5C 252.5,251.5 252.5,248.5 252.5,245.5C 250.833,245.5 249.167,245.5 247.5,245.5C 247.5,241.167 247.5,236.833 247.5,232.5C 246.167,232.5 244.833,232.5 243.5,232.5C 243.5,228.167 243.5,223.833 243.5,219.5C 242.167,219.5 240.833,219.5 239.5,219.5C 239.5,215.167 239.5,210.833 239.5,206.5C 237.833,206.5 236.167,206.5 234.5,206.5C 234.5,202.167 234.5,197.833 234.5,193.5C 233.167,193.5 231.833,193.5 230.5,193.5C 230.5,190.833 230.5,188.167 230.5,185.5C 229.167,185.5 227.833,185.5 226.5,185.5C 226.5,182.5 226.5,179.5 226.5,176.5C 224.833,176.5 223.167,176.5 221.5,176.5C 221.5,170.833 221.5,165.167 221.5,159.5C 220.167,159.5 218.833,159.5 217.5,159.5C 217.5,155.167 217.5,150.833 217.5,146.5C 216.167,146.5 214.833,146.5 213.5,146.5C 213.5,143.5 213.5,140.5 213.5,137.5C 211.833,137.5 210.167,137.5 208.5,137.5C 208.5,133.167 208.5,128.833 208.5,124.5C 207.167,124.5 205.833,124.5 204.5,124.5C 204.5,121.833 204.5,119.167 204.5,116.5C 203.167,116.5 201.833,116.5 200.5,116.5C 200.5,113.5 200.5,110.5 200.5,107.5C 198.833,107.5 197.167,107.5 195.5,107.5C 195.5,103.167 195.5,98.8333 195.5,94.5C 194.167,94.5 192.833,94.5 191.5,94.5C 191.5,62.8333 191.5,31.1667 191.5,-0.5 Z"/></g>
</svg>
